<?xml version="1.0" encoding="UTF-8" standalone="no"?>
<!DOCTYPE svg PUBLIC "-//W3C//DTD SVG 1.1//EN"
 "http://www.w3.org/Graphics/SVG/1.1/DTD/svg11.dtd">
<!-- Generated by graphviz version 2.43.0 (0)
 -->
<!-- Title: %3 Pages: 1 -->
<svg width="884pt" height="238pt"
 viewBox="0.00 0.00 884.00 238.00" xmlns="http://www.w3.org/2000/svg" xmlns:xlink="http://www.w3.org/1999/xlink">
<g id="graph0" class="graph" transform="scale(1 1) rotate(0) translate(4 234)">
<title>%3</title>
<polygon fill="white" stroke="transparent" points="-4,4 -4,-234 880,-234 880,4 -4,4"/>
<!-- Romanian
crește
grow -->
<g id="node1" class="node">
<title>Romanian
crește
grow</title>
<polygon fill="none" stroke="black" points="358,-151 270,-151 270,-98 358,-98 358,-151"/>
<text text-anchor="middle" x="314" y="-135.8" font-family="Times,serif" font-size="14.00">Romanian</text>
<text text-anchor="middle" x="314" y="-120.8" font-family="Times,serif" font-size="14.00">crește</text>
<text text-anchor="middle" x="314" y="-105.8" font-family="Times,serif" font-size="14.00">grow</text>
</g>
<!-- Romanian
crescând
growing -->
<g id="node2" class="node">
<title>Romanian
crescând
growing</title>
<text text-anchor="middle" x="416" y="-214.8" font-family="Times,serif" font-size="14.00">Romanian</text>
<text text-anchor="middle" x="416" y="-199.8" font-family="Times,serif" font-size="14.00">crescând</text>
<text text-anchor="middle" x="416" y="-184.8" font-family="Times,serif" font-size="14.00">growing</text>
</g>
<!-- Romanian
crește
grow&#45;&gt;Romanian
crescând
growing -->
<g id="edge1" class="edge">
<title>Romanian
crește
grow&#45;&gt;Romanian
crescând
growing</title>
<path fill="none" stroke="black" d="M348.58,-151.03C356.49,-157.28 365.03,-164.02 373.25,-170.52"/>
<polygon fill="black" stroke="black" points="371.33,-173.46 381.34,-176.91 375.66,-167.96 371.33,-173.46"/>
</g>
<!-- Romanian
crescător
breeder -->
<g id="node3" class="node">
<title>Romanian
crescător
breeder</title>
<text text-anchor="middle" x="518" y="-193.8" font-family="Times,serif" font-size="14.00">Romanian</text>
<text text-anchor="middle" x="518" y="-178.8" font-family="Times,serif" font-size="14.00">crescător</text>
<text text-anchor="middle" x="518" y="-163.8" font-family="Times,serif" font-size="14.00">breeder</text>
</g>
<!-- Romanian
crește
grow&#45;&gt;Romanian
crescător
breeder -->
<g id="edge2" class="edge">
<title>Romanian
crește
grow&#45;&gt;Romanian
crescător
breeder</title>
<path fill="none" stroke="black" d="M358.33,-136.94C389.22,-145.81 430.93,-157.79 463.83,-167.23"/>
<polygon fill="black" stroke="black" points="463.16,-170.68 473.74,-170.08 465.09,-163.95 463.16,-170.68"/>
</g>
<!-- Romanian
creștere
growth -->
<g id="node4" class="node">
<title>Romanian
creștere
growth</title>
<text text-anchor="middle" x="624" y="-135.8" font-family="Times,serif" font-size="14.00">Romanian</text>
<text text-anchor="middle" x="624" y="-120.8" font-family="Times,serif" font-size="14.00">creștere</text>
<text text-anchor="middle" x="624" y="-105.8" font-family="Times,serif" font-size="14.00">growth</text>
</g>
<!-- Romanian
crește
grow&#45;&gt;Romanian
creștere
growth -->
<g id="edge3" class="edge">
<title>Romanian
crește
grow&#45;&gt;Romanian
creștere
growth</title>
<path fill="none" stroke="black" d="M358.15,-124.5C413.55,-124.5 509.67,-124.5 569.62,-124.5"/>
<polygon fill="black" stroke="black" points="569.65,-128 579.65,-124.5 569.65,-121 569.65,-128"/>
</g>
<!-- Romanian
creștet
crown -->
<g id="node5" class="node">
<title>Romanian
creștet
crown</title>
<text text-anchor="middle" x="730" y="-86.8" font-family="Times,serif" font-size="14.00">Romanian</text>
<text text-anchor="middle" x="730" y="-71.8" font-family="Times,serif" font-size="14.00">creștet</text>
<text text-anchor="middle" x="730" y="-56.8" font-family="Times,serif" font-size="14.00">crown</text>
</g>
<!-- Romanian
crește
grow&#45;&gt;Romanian
creștet
crown -->
<g id="edge4" class="edge">
<title>Romanian
crește
grow&#45;&gt;Romanian
creștet
crown</title>
<path fill="none" stroke="black" d="M358.36,-118.42C410.1,-111.27 499.27,-99.26 576,-90.5 609.09,-86.72 646.28,-83.06 675.7,-80.31"/>
<polygon fill="black" stroke="black" points="676.13,-83.78 685.76,-79.37 675.48,-76.81 676.13,-83.78"/>
</g>
<!-- Romanian
descrește
decrease -->
<g id="node6" class="node">
<title>Romanian
descrește
decrease</title>
<text text-anchor="middle" x="832" y="-37.8" font-family="Times,serif" font-size="14.00">Romanian</text>
<text text-anchor="middle" x="832" y="-22.8" font-family="Times,serif" font-size="14.00">descrește</text>
<text text-anchor="middle" x="832" y="-7.8" font-family="Times,serif" font-size="14.00">decrease</text>
</g>
<!-- Romanian
crește
grow&#45;&gt;Romanian
descrește
decrease -->
<g id="edge5" class="edge">
<title>Romanian
crește
grow&#45;&gt;Romanian
descrește
decrease</title>
<path fill="none" stroke="black" d="M346.65,-97.98C384.59,-68.96 451.32,-26.5 517,-26.5 517,-26.5 517,-26.5 625,-26.5 676.93,-26.5 736.22,-26.5 777.82,-26.5"/>
<polygon fill="black" stroke="black" points="777.99,-30 787.99,-26.5 777.99,-23 777.99,-30"/>
</g>
<!-- Romanian
crescătorie
farm -->
<g id="node7" class="node">
<title>Romanian
crescătorie
farm</title>
<text text-anchor="middle" x="624" y="-202.8" font-family="Times,serif" font-size="14.00">Romanian</text>
<text text-anchor="middle" x="624" y="-187.8" font-family="Times,serif" font-size="14.00">crescătorie</text>
<text text-anchor="middle" x="624" y="-172.8" font-family="Times,serif" font-size="14.00">farm</text>
</g>
<!-- Romanian
crescător
breeder&#45;&gt;Romanian
crescătorie
farm -->
<g id="edge6" class="edge">
<title>Romanian
crescător
breeder&#45;&gt;Romanian
crescătorie
farm</title>
<path fill="none" stroke="black" d="M562.2,-186.24C563.32,-186.34 564.44,-186.43 565.56,-186.53"/>
<polygon fill="black" stroke="black" points="565.46,-190.03 575.73,-187.41 566.07,-183.06 565.46,-190.03"/>
</g>
<!-- Latin
crēscere
increase -->
<g id="node8" class="node">
<title>Latin
crēscere
increase</title>
<text text-anchor="middle" x="217.5" y="-135.8" font-family="Times,serif" font-size="14.00">Latin</text>
<text text-anchor="middle" x="217.5" y="-120.8" font-family="Times,serif" font-size="14.00">crēscere</text>
<text text-anchor="middle" x="217.5" y="-105.8" font-family="Times,serif" font-size="14.00">increase</text>
</g>
<!-- Latin
crēscere
increase&#45;&gt;Romanian
crește
grow -->
<g id="edge7" class="edge">
<title>Latin
crēscere
increase&#45;&gt;Romanian
crește
grow</title>
<path fill="none" stroke="black" d="M256.12,-124.5C257.25,-124.5 258.39,-124.5 259.54,-124.5"/>
<polygon fill="black" stroke="black" points="259.9,-128 269.9,-124.5 259.9,-121 259.9,-128"/>
</g>
<!-- Proto&#45;Indo&#45;European
*ḱer&#45;
grow -->
<g id="node9" class="node">
<title>Proto&#45;Indo&#45;European
*ḱer&#45;
grow</title>
<text text-anchor="middle" x="82.5" y="-135.8" font-family="Times,serif" font-size="14.00">Proto&#45;Indo&#45;European</text>
<text text-anchor="middle" x="82.5" y="-120.8" font-family="Times,serif" font-size="14.00">*ḱer&#45;</text>
<text text-anchor="middle" x="82.5" y="-105.8" font-family="Times,serif" font-size="14.00">grow</text>
</g>
<!-- Proto&#45;Indo&#45;European
*ḱer&#45;
grow&#45;&gt;Latin
crēscere
increase -->
<g id="edge8" class="edge">
<title>Proto&#45;Indo&#45;European
*ḱer&#45;
grow&#45;&gt;Latin
crēscere
increase</title>
<path fill="none" stroke="black" d="M165.08,-124.5C166.26,-124.5 167.44,-124.5 168.61,-124.5"/>
<polygon fill="black" stroke="black" points="168.85,-128 178.85,-124.5 168.85,-121 168.85,-128"/>
</g>
</g>
</svg>
